<svg width="18" height="18" viewBox="0 0 18 18" fill="none" xmlns="http://www.w3.org/2000/svg">
<path d="M15.3961 2.49517L9.54549 15.2602C9.49653 15.3671 9.41352 15.4548 9.30943 15.5096C9.20534 15.5643 9.08605 15.583 8.97021 15.5627C8.85436 15.5424 8.74851 15.4844 8.66919 15.3975C8.58988 15.3107 8.54157 15.2 8.53184 15.0828L8.03719 9.14885L2.1032 8.6542C1.986 8.64446 1.87534 8.59616 1.78851 8.51685C1.70168 8.43753 1.64359 8.33167 1.62332 8.21583C1.60305 8.09999 1.62174 7.9807 1.67647 7.87661C1.73121 7.77252 1.81889 7.68951 1.92582 7.64055L14.6909 1.7899C14.7895 1.74468 14.8997 1.73073 15.0065 1.74994C15.1134 1.76914 15.2118 1.82057 15.2885 1.89733C15.3653 1.97409 15.4167 2.07249 15.4359 2.17933C15.4551 2.28617 15.4412 2.39633 15.396 2.49501L15.3961 2.49517Z" fill="#080809"/>
</svg>
